<svg xmlns="http://www.w3.org/2000/svg" viewBox="0 0 384 512"><defs><clipPath id="a"><path d="M0 230.287h737.008V0H0z"/></clipPath></defs><path d="M172.268 501.67C26.97 291.031 0 269.413 0 192 0 85.961 85.961 0 192 0s192 85.961 192 192c0 77.413-26.97 99.031-172.268 309.67-9.535 13.774-29.93 13.773-39.464 0z" fill="#5a2572"/><g clip-path="url(#a)" transform="matrix(6.0186 0 0 -6.0186 -1459.845 1401.556)" fill="#fff"><path d="M255.341 219.286v-17.721h5.961a7.582 7.582 0 00-1.912 4.997c0 4.487 3.757 8.071 8.378 8.071a8.69 8.69 0 005.29-1.775v6.428zm20.91 0v-6.428a8.712 8.712 0 005.29 1.775c4.622 0 8.357-3.584 8.357-8.071 0-1.856-.69-3.643-1.856-4.997h5.922v17.721zm-8.483-7.623c-2.914 0-5.316-2.252-5.316-5.096 0-2.724 2.402-4.992 5.316-4.992h5.29v4.992c0 2.844-2.362 5.096-5.29 5.096zm13.784 0c-2.903 0-5.278-2.252-5.278-5.096v-4.992h5.278c2.963 0 5.302 2.268 5.302 4.992 0 2.844-2.339 5.096-5.302 5.096zm-26.21-13.312v-17.722h17.716v17.722zm20.908 0v-17.722h17.717v17.722z"/></g></svg>