<svg xmlns="http://www.w3.org/2000/svg" viewBox="0 0 384 512"><defs><clipPath id="a"><path d="M0 230.287h737.008V0H0Z"/></clipPath></defs><path d="M172.268 501.67C26.97 291.031 0 269.413 0 192 0 85.961 85.961 0 192 0s192 85.961 192 192c0 77.413-26.97 99.031-172.268 309.67-9.535 13.774-29.93 13.773-39.464 0z" style="fill:#5a2572;fill-opacity:1"/><g clip-path="url(#a)" style="fill:#fff" transform="matrix(6.0186 0 0 -6.0186 -1459.845 1401.556)"><path style="fill:#fff;stroke-width:1.33324635" d="M326.445.006v23.627h7.948c-1.6-1.805-2.55-4.188-2.55-6.662 0-5.983 5.01-10.762 11.17-10.762 2.666 0 5.094.88 7.053 2.367V.006Zm27.877 0v8.57a11.615 11.615 0 0 1 7.053-2.367c6.164 0 11.143 4.78 11.143 10.762 0 2.474-.92 4.857-2.475 6.662h7.896V.006ZM343.014 10.17c-3.885 0-7.088 3.001-7.088 6.793 0 3.632 3.203 6.656 7.088 6.656h7.052v-6.656c0-3.792-3.149-6.793-7.052-6.793zm18.377 0c-3.87 0-7.037 3.001-7.037 6.793v6.656h7.037c3.95 0 7.068-3.024 7.068-6.656 0-3.792-3.118-6.793-7.068-6.793zm-34.946 17.748v23.627h23.621V27.918Zm27.877 0v23.627h23.621V27.918Z" transform="matrix(.75005 0 0 -.75005 10.491 219.29)"/></g></svg>