<svg xmlns="http://www.w3.org/2000/svg" viewBox="0 0 30 30"><path d="M26.73 5.59l-.84.82h-.05a.31.31 0 01-.44 0l-.11-.11a.3.3 0 010-.43l.89-.87a.37.37 0 000-.53l-.18-.1a.4.4 0 00-.55 0l-.9.87a.31.31 0 01-.43 0L24 5.13a.3.3 0 010-.43l.89-.87a1.2 1.2 0 011.67 0l.14.15a1.12 1.12 0 010 1.62zm0 3.84l-.15.14a1.18 1.18 0 01-1.66 0l-.84-.81-.08-.07a.29.29 0 010-.42l.12-.11a.31.31 0 01.44 0l.89.87A.39.39 0 0026 9l.14-.14a.37.37 0 000-.54l-.9-.87a.3.3 0 010-.43l.11-.11a.31.31 0 01.44 0l.89.87a1.14 1.14 0 010 1.63zm-3.18-4.31l-.11.11a.31.31 0 01-.44 0l-.89-.87a.39.39 0 00-.55 0l-.15.14a.38.38 0 000 .54l.89.87a.29.29 0 010 .42l-.12.12a.31.31 0 01-.43 0l-.89-.87a1.14 1.14 0 010-1.63l.14-.13a1.18 1.18 0 011.66 0l.84.81.05.06a.29.29 0 010 .42zm0 3.57l-.89.88a1.2 1.2 0 01-1.67 0l-.15-.14a1.14 1.14 0 010-1.63l.85-.8v-.06a.33.33 0 01.44 0l.11.11a.3.3 0 010 .43l-.89.88a.37.37 0 000 .53l.15.14a.39.39 0 00.54 0l.9-.88a.32.32 0 01.44 0l.11.11a.29.29 0 010 .42zm-4.18 14l-.06 3.71a.6.6 0 01-.61.6h-3.65a.6.6 0 01-.6-.6v-4.91A2.38 2.38 0 0012 19.15h-1.26a2.37 2.37 0 00-2.4 2.34v4.91a.6.6 0 01-.6.6H4.06a.6.6 0 01-.61-.6V4.29a.6.6 0 01.61-.59h3.65a.6.6 0 01.6.59v10.44a7.56 7.56 0 012.43-.41H12A2.38 2.38 0 0014.38 12l.08-1.21a.59.59 0 01.59-.49h3.65a.6.6 0 01.6.49V12a7 7 0 01-1.84 4.73 7.05 7.05 0 011.89 4.79v1.2z" /></svg>